<svg width="192" height="192" viewBox="0 0 192 192" fill="none" xmlns="http://www.w3.org/2000/svg">
<rect x="59.2051" y="40.002" width="87.9994" height="110.4" fill="black"/>
<path d="M96.0005 0C43.0663 0 0 43.065 0 96.0005C0 148.934 43.0654 192 96.0005 192C148.935 192 192 148.935 192 96.0005C192 43.0659 148.935 0 96.0005 0ZM136.087 104.313L91.0501 137.022C89.2621 138.32 87.1424 138.983 85.0126 138.983C83.4206 138.983 81.8221 138.613 80.3494 137.863C76.9074 136.108 74.7411 132.571 74.7411 128.71V63.2916C74.7411 59.4295 76.9074 55.8917 80.3494 54.1393C83.7897 52.385 87.9252 52.7094 91.0501 54.9804L136.087 87.6893C138.749 89.6222 140.322 92.7115 140.322 96.0014C140.323 99.2903 138.749 102.381 136.087 104.313Z" fill="#E3241F"/>
</svg>
