<svg width="310" height="310" viewBox="0 0 310 310" fill="none" xmlns="http://www.w3.org/2000/svg">
<rect x="95.5918" y="64.5864" width="142.082" height="178.25" fill="black"/>
<path d="M155.001 0C69.5342 0 0 69.532 0 155.001C0 240.466 69.5327 310 155.001 310C240.467 310 310 240.468 310 155.001C310 69.5335 240.467 0 155.001 0ZM219.723 168.421L147.008 221.234C144.121 223.329 140.699 224.399 137.26 224.399C134.689 224.399 132.109 223.801 129.731 222.591C124.173 219.758 120.676 214.048 120.676 207.813V102.19C120.676 95.9538 124.173 90.2419 129.731 87.4124C135.285 84.58 141.963 85.1038 147.008 88.7705L219.723 141.582C224.021 144.702 226.561 149.69 226.561 155.002C226.564 160.312 224.021 165.302 219.723 168.421Z" fill="#E3241F"/>
</svg>
