<svg width="180" height="180" viewBox="0 0 180 180" fill="none" xmlns="http://www.w3.org/2000/svg">
<rect x="55.5039" y="37.502" width="82.4995" height="103.5" fill="black"/>
<path d="M90.0004 0C40.3747 0 0 40.3734 0 90.0004C0 139.626 40.3738 180 90.0004 180C139.626 180 180 139.627 180 90.0004C180 40.3743 139.626 0 90.0004 0ZM127.581 97.793L85.3595 128.458C83.6833 129.675 81.696 130.296 79.6994 130.296C78.2068 130.296 76.7082 129.949 75.3276 129.246C72.1006 127.601 70.0698 124.286 70.0698 120.666V59.3359C70.0698 55.7151 72.1006 52.3985 75.3276 50.7556C78.5528 49.1109 82.4299 49.4151 85.3595 51.5442L127.581 82.2087C130.077 84.0208 131.552 86.9171 131.552 90.0013C131.553 93.0847 130.077 95.9818 127.581 97.793Z" fill="#E3241F"/>
</svg>
